<svg width="58" height="36" viewBox="0 0 58 36" fill="none" xmlns="http://www.w3.org/2000/svg">
<g filter="url(#filter0_d)">
<path d="M18 3H40C48.2843 3 55 9.71573 55 18C55 26.2843 48.2843 33 40 33H18C9.71573 33 3 26.2843 3 18C3 9.71573 9.71573 3 18 3V3Z" fill="black"/>
</g>
<path d="M18 3H40C48.2843 3 55 9.71573 55 18C55 26.2843 48.2843 33 40 33H18C9.71573 33 3 26.2843 3 18C3 9.71573 9.71573 3 18 3V3Z" fill="white"/>
<path fill-rule="evenodd" clip-rule="evenodd" d="M26.002 25.9336C26.002 26.5768 25.8548 27.0951 25.5605 27.4883C25.2663 27.8815 24.8678 28.0781 24.3652 28.0781C23.8522 28.0781 23.4486 27.9154 23.1543 27.5898V29.625H22.4316V23.7734H23.0918L23.127 24.2422C23.4212 23.8776 23.8301 23.6953 24.3535 23.6953C24.8613 23.6953 25.263 23.8867 25.5586 24.2695C25.8542 24.6523 26.002 25.1849 26.002 25.8672V25.9336ZM25.2793 25.8516C25.2793 25.375 25.1777 24.9987 24.9746 24.7227C24.7715 24.4466 24.4928 24.3086 24.1387 24.3086C23.7012 24.3086 23.373 24.5026 23.1543 24.8906V26.9102C23.3704 27.2956 23.7012 27.4883 24.1465 27.4883C24.4928 27.4883 24.7682 27.3509 24.9727 27.0762C25.1771 26.8014 25.2793 26.3932 25.2793 25.8516ZM26.7285 25.8477C26.7285 25.4336 26.8099 25.0612 26.9727 24.7305C27.1354 24.3997 27.362 24.1445 27.6523 23.9648C27.9427 23.7852 28.2741 23.6953 28.6465 23.6953C29.222 23.6953 29.6875 23.8945 30.043 24.293C30.3984 24.6914 30.5762 25.2214 30.5762 25.8828V25.9336C30.5762 26.3451 30.4974 26.7142 30.3398 27.041C30.1823 27.3678 29.957 27.6224 29.6641 27.8047C29.3711 27.987 29.0345 28.0781 28.6543 28.0781C28.0814 28.0781 27.6172 27.8789 27.2617 27.4805C26.9062 27.082 26.7285 26.5547 26.7285 25.8984V25.8477ZM27.4551 25.9336C27.4551 26.4023 27.5638 26.7786 27.7812 27.0625C27.9987 27.3464 28.2897 27.4883 28.6543 27.4883C29.0215 27.4883 29.3131 27.3444 29.5293 27.0566C29.7454 26.7689 29.8535 26.3659 29.8535 25.8477C29.8535 25.3841 29.7435 25.0085 29.5234 24.7207C29.3034 24.4329 29.0111 24.2891 28.6465 24.2891C28.2897 24.2891 28.002 24.431 27.7832 24.7148C27.5645 24.9987 27.4551 25.4049 27.4551 25.9336ZM32.2676 28H31.5449V22H32.2676V28ZM35.1777 28.0781C34.6048 28.0781 34.1387 27.89 33.7793 27.5137C33.4199 27.1374 33.2402 26.6341 33.2402 26.0039V25.8711C33.2402 25.4518 33.3203 25.0775 33.4805 24.748C33.6406 24.4186 33.8646 24.1608 34.1523 23.9746C34.4401 23.7884 34.752 23.6953 35.0879 23.6953C35.6374 23.6953 36.0645 23.8763 36.3691 24.2383C36.6738 24.6003 36.8262 25.1185 36.8262 25.793V26.0938H33.9629C33.9733 26.5104 34.0951 26.847 34.3281 27.1035C34.5612 27.36 34.8574 27.4883 35.2168 27.4883C35.472 27.4883 35.6882 27.4362 35.8652 27.332C36.0423 27.2279 36.1973 27.0898 36.3301 26.918L36.7715 27.2617C36.4173 27.806 35.8861 28.0781 35.1777 28.0781ZM35.0879 24.2891C34.7962 24.2891 34.5514 24.3952 34.3535 24.6074C34.1556 24.8197 34.0332 25.1172 33.9863 25.5H36.1035V25.4453C36.0827 25.0781 35.9837 24.7936 35.8066 24.5918C35.6296 24.39 35.39 24.2891 35.0879 24.2891Z" fill="black" fill-opacity="0.827191"/>
<path fill-rule="evenodd" clip-rule="evenodd" d="M25.0498 19H18.5283V18.0908L21.9736 14.2627C22.4841 13.6839 22.8361 13.2134 23.0298 12.8511C23.2235 12.4888 23.3203 12.1139 23.3203 11.7266C23.3203 11.207 23.1631 10.7809 22.8486 10.4482C22.5342 10.1156 22.1149 9.94922 21.5908 9.94922C20.9619 9.94922 20.4731 10.1281 20.1245 10.4858C19.7759 10.8436 19.6016 11.3415 19.6016 11.9795H18.3369C18.3369 11.0635 18.632 10.3229 19.2222 9.75781C19.8123 9.19271 20.6019 8.91016 21.5908 8.91016C22.516 8.91016 23.2474 9.15283 23.7852 9.63818C24.3229 10.1235 24.5918 10.7695 24.5918 11.5762C24.5918 12.556 23.9675 13.7226 22.7188 15.0762L20.0527 17.9678H25.0498V19ZM31.1748 11.6035L31.209 12.4238C31.7513 11.7858 32.4827 11.4668 33.4033 11.4668C34.4378 11.4668 35.1419 11.8633 35.5156 12.6562C35.7617 12.3008 36.0819 12.0137 36.4761 11.7949C36.8703 11.5762 37.3363 11.4668 37.874 11.4668C39.4964 11.4668 40.3213 12.3258 40.3486 14.0439V19H39.084V14.1191C39.084 13.5905 38.9632 13.1952 38.7217 12.9331C38.4801 12.6711 38.0745 12.54 37.5049 12.54C37.0355 12.54 36.6458 12.6802 36.3359 12.9604C36.026 13.2407 35.846 13.6178 35.7959 14.0918V19H34.5244V14.1533C34.5244 13.0778 33.9981 12.54 32.9453 12.54C32.1159 12.54 31.5485 12.8932 31.2432 13.5996V19H29.9785V11.6035H31.1748Z" fill="black" fill-opacity="0.827191"/>
<defs>
<filter id="filter0_d" x="0" y="0" width="58" height="36" filterUnits="userSpaceOnUse" color-interpolation-filters="sRGB">
<feFlood flood-opacity="0" result="BackgroundImageFix"/>
<feColorMatrix in="SourceAlpha" type="matrix" values="0 0 0 0 0 0 0 0 0 0 0 0 0 0 0 0 0 0 127 0"/>
<feOffset/>
<feGaussianBlur stdDeviation="1.5"/>
<feColorMatrix type="matrix" values="0 0 0 0 0 0 0 0 0 0 0 0 0 0 0 0 0 0 0.2 0"/>
<feBlend mode="normal" in2="BackgroundImageFix" result="effect1_dropShadow"/>
<feBlend mode="normal" in="SourceGraphic" in2="effect1_dropShadow" result="shape"/>
</filter>
</defs>
</svg>
