<svg width="19" height="34" viewBox="0 0 19 34" fill="none" xmlns="http://www.w3.org/2000/svg">
<path d="M17.9444 4.78572C18.5274 4.78572 19 5.24147 19 5.80358V6.82144H16.8889V16.9822C16.8889 17.5443 16.4163 18 15.8333 18H3.16667C2.58374 18 2.11111 17.5443 2.11111 16.9822V6.82144H0V5.80358C0 5.24147 0.472625 4.78572 1.05556 4.78572H5.27778V1.73215C5.27778 1.17004 5.7504 0.714294 6.33333 0.714294H12.6667C13.2496 0.714294 13.7222 1.17004 13.7222 1.73215V4.78572H17.9444ZM7.38889 2.75001V4.78572H11.6111V2.75001H7.38889ZM14.7778 15.9643V6.82144H4.22222V15.9643H14.7778ZM6.86111 13.9286C6.56938 13.9286 6.33333 13.7007 6.33333 13.4197V9.36608C6.33333 9.08502 6.56938 8.85715 6.86111 8.85715H7.91667C8.2084 8.85715 8.44444 9.08502 8.44444 9.36608V13.4197C8.44444 13.7007 8.2084 13.9286 7.91667 13.9286H6.86111ZM11.0833 13.9286C10.7916 13.9286 10.5556 13.7007 10.5556 13.4197V9.36608C10.5556 9.08502 10.7916 8.85715 11.0833 8.85715H12.1389C12.4306 8.85715 12.6667 9.08502 12.6667 9.36608V13.4197C12.6667 13.7007 12.4306 13.9286 12.1389 13.9286H11.0833Z" fill="#F44336"/>
</svg>
