<svg width="36" height="36" viewBox="0 0 36 36" fill="none" xmlns="http://www.w3.org/2000/svg">
<g filter="url(#filter0_d)">
<path d="M18 33C26.2843 33 33 26.2843 33 18C33 9.71573 26.2843 3 18 3C9.71573 3 3 9.71573 3 18C3 26.2843 9.71573 33 18 33Z" fill="black"/>
</g>
<path d="M18 33C26.2843 33 33 26.2843 33 18C33 9.71573 26.2843 3 18 3C9.71573 3 3 9.71573 3 18C3 26.2843 9.71573 33 18 33Z" fill="white"/>
<path fill-rule="evenodd" clip-rule="evenodd" d="M13.7277 12H13.0219L12.1165 12.8448L12.5891 13.3504C12.7755 13.1864 12.8865 13.0665 12.922 12.9912H12.9354V13.0711C12.9354 13.2485 12.9342 13.5167 12.932 13.876C12.9298 14.2352 12.9286 14.5057 12.9286 14.6875H12.2163V15.3462H14.4466V14.6875H13.7277V12Z" fill="black"/>
<path fill-rule="evenodd" clip-rule="evenodd" d="M23.9361 12.9873C23.8933 12.9445 23.8429 12.9231 23.7844 12.9231H15.5941C15.5357 12.9231 15.4853 12.9445 15.4425 12.9873C15.3999 13.0302 15.3786 13.0808 15.3786 13.1394V14.4375C15.3786 14.4961 15.3999 14.5468 15.4425 14.5896C15.4853 14.6324 15.5357 14.6539 15.5941 14.6539H23.7845C23.843 14.6539 23.8934 14.6324 23.9361 14.5896C23.9788 14.5468 24 14.4961 24 14.4375V13.1394C24.0001 13.0809 23.9788 13.0302 23.9361 12.9873Z" fill="black"/>
<path fill-rule="evenodd" clip-rule="evenodd" d="M13.6964 21.9109L14.3385 21.1334V20.5385H12.0879V21.5661H12.8043V21.2078C12.8764 21.2078 12.9856 21.2057 13.1321 21.2012C13.2785 21.1966 13.3878 21.1944 13.4599 21.1944V21.2012C13.3742 21.2823 13.2909 21.369 13.2098 21.4615C13.1286 21.5539 13.0329 21.6756 12.9225 21.8264C12.8122 21.9774 12.739 22.0755 12.703 22.1206L12.8786 22.4992C13.3517 22.463 13.5883 22.5892 13.5883 22.8778C13.5883 23.0039 13.5398 23.0997 13.4429 23.165C13.3462 23.2305 13.2323 23.2631 13.1017 23.2631C12.8449 23.2631 12.6061 23.1617 12.3853 22.9588L12 23.5538C12.2974 23.8513 12.6848 24 13.1625 24C13.5274 24 13.8326 23.8964 14.0783 23.689C14.3238 23.4817 14.4466 23.1977 14.4466 22.8372C14.4466 22.6073 14.3789 22.409 14.2439 22.2421C14.1087 22.0755 13.9263 21.965 13.6964 21.9109Z" fill="black"/>
<path fill-rule="evenodd" clip-rule="evenodd" d="M13.7485 19.0613H12.9041C12.9086 18.9486 12.9873 18.8303 13.1402 18.7064C13.2931 18.5826 13.4603 18.4688 13.6422 18.3651C13.8238 18.2613 13.99 18.1161 14.1408 17.9291C14.2915 17.742 14.3668 17.5358 14.3668 17.3104C14.3668 16.9904 14.256 16.7369 14.0344 16.5498C13.8129 16.3628 13.5402 16.2692 13.2167 16.2692C12.9596 16.2692 12.7257 16.3334 12.5152 16.4619C12.3047 16.5904 12.1463 16.7696 12.0399 16.9995L12.605 17.3984C12.7602 17.1369 12.9397 17.0062 13.1435 17.0062C13.2544 17.0062 13.3419 17.0366 13.4062 17.0975C13.4704 17.1584 13.5027 17.2451 13.5027 17.3578C13.5027 17.4615 13.4506 17.5629 13.3464 17.662C13.2422 17.7612 13.117 17.8592 12.9707 17.9561C12.8244 18.053 12.6781 18.1601 12.5319 18.2773C12.3857 18.3945 12.2604 18.5476 12.1562 18.7369C12.0521 18.9262 12 19.1359 12 19.3657C12 19.4468 12.0133 19.5685 12.0398 19.7308H14.4466V18.6557V18.6556H13.7485V19.0613Z" fill="black"/>
<path fill-rule="evenodd" clip-rule="evenodd" d="M23.7845 21.2308H15.5941C15.5312 21.2308 15.4796 21.2511 15.4392 21.2916C15.3988 21.3322 15.3786 21.384 15.3786 21.4471V22.7452C15.3786 22.8038 15.3999 22.8546 15.4425 22.8973C15.4853 22.9402 15.5357 22.9615 15.5941 22.9615H23.7845C23.843 22.9615 23.8934 22.9403 23.9361 22.8973C23.9788 22.8546 24 22.8038 24 22.7452V21.4471C24 21.3886 23.9786 21.3378 23.9361 21.295C23.8934 21.2522 23.8429 21.2308 23.7845 21.2308Z" fill="black"/>
<path fill-rule="evenodd" clip-rule="evenodd" d="M23.7845 17.0769H15.5941C15.5312 17.0769 15.4796 17.0972 15.4392 17.1377C15.3988 17.1783 15.3786 17.2301 15.3786 17.2932V18.5913C15.3786 18.6499 15.3999 18.7005 15.4425 18.7434C15.4853 18.7863 15.5357 18.8077 15.5941 18.8077H23.7845C23.843 18.8077 23.8934 18.7863 23.9361 18.7434C23.9788 18.7005 24 18.6499 24 18.5913V17.2932C24 17.2346 23.9786 17.1839 23.9361 17.1411C23.8934 17.0983 23.8429 17.0769 23.7845 17.0769Z" fill="black"/>
<defs>
<filter id="filter0_d" x="0" y="0" width="36" height="36" filterUnits="userSpaceOnUse" color-interpolation-filters="sRGB">
<feFlood flood-opacity="0" result="BackgroundImageFix"/>
<feColorMatrix in="SourceAlpha" type="matrix" values="0 0 0 0 0 0 0 0 0 0 0 0 0 0 0 0 0 0 127 0"/>
<feOffset/>
<feGaussianBlur stdDeviation="1.5"/>
<feColorMatrix type="matrix" values="0 0 0 0 0 0 0 0 0 0 0 0 0 0 0 0 0 0 0.2 0"/>
<feBlend mode="normal" in2="BackgroundImageFix" result="effect1_dropShadow"/>
<feBlend mode="normal" in="SourceGraphic" in2="effect1_dropShadow" result="shape"/>
</filter>
</defs>
</svg>
